# xmcd
#
# Track frame offsets:
#	150
#	16296
#	37208
#	57447
#	78173
#	91546
#	110949
#	126719
#	137312
#	154599
#	171154
#	186036
#	197560
#	212949
#	232160
#	253147
#	269277
#	285687
#	302622
#	326888
#
# Disc length: 4590 seconds
#
# Revision: 0
# Processed by: cddbd v1.5.2PL0 Copyright (c) Steve Scherf et al.
# Submitted via: audiograbber 1.83.01
#
DISCID=2811ec14
DTITLE=Various Artist - LOVE RADIO 2007 COLLECTION
DYEAR=2007
DGENRE=Ballad
TTITLE0=яоубас - с' евы еяытеухеи
TTITLE1=пкоутаявос - ока се сема та бягйа
TTITLE2=паяиос - лоу 'веис йамеи тгм фыг лоу йокасг
TTITLE3=теяфгс - де ликале
TTITLE4=гяы - етси еимаи ои свесеис
TTITLE5=вяуспа - де с' ацапы
TTITLE6=фгма - дустувыс
TTITLE7=биссг - осо евы жымг
TTITLE8=бакамтгс - олокоцы
TTITLE9=сжайиамайгс - йаи дем лпояы
TTITLE10=талта and петяайос - еимаи йяила
TTITLE11=босйопоукос - ецы ацапы лиа
TTITLE12=поукопоукос - жике лоу
TTITLE13=вяистожояоу - кицо
TTITLE14=сжайиамайгс - ацапг ти дусйоко пяала (DANCE MIX)
TTITLE15=адаламтидгс - ла поу ма паы (LIVE)
TTITLE16=паяиос - тоса цяаллата
TTITLE17=пкоутаявос - емас хеос
TTITLE18=бамдг - ста 'дыса ока
TTITLE19=баяхайоуягс - с' еуваяисты (то тяацоуди тоу ваяг)
EXTD=DJ ZRAF!!! (AGAIN)
EXTT0=
EXTT1=
EXTT2=
EXTT3=
EXTT4=
EXTT5=
EXTT6=
EXTT7=
EXTT8=
EXTT9=
EXTT10=
EXTT11=
EXTT12=
EXTT13=
EXTT14=
EXTT15=
EXTT16=
EXTT17=
EXTT18=
EXTT19=
PLAYORDER=
